<svg xmlns="http://www.w3.org/2000/svg" width="256" height="256"><path fill="#1976D2" fill-opacity=".016" fill-rule="evenodd" d="M0 128.004v128.004l128.25-.254 128.25-.254.254-127.75L257.008 0H0zm.485.496c0 70.4.119 99.053.265 63.672s.146-92.98 0-128S.485 58.1.485 128.5"/><path fill="#1976D2" fill-opacity=".143" fill-rule="evenodd" d="M106.5 1.622C58.662 10.251 20.088 44.009 5.576 89.948c-10.632 33.656-6.018 73.187 12.063 103.365 18.262 30.48 46.169 50.809 82.361 59.994 7.271 1.846 11.319 2.158 28 2.158s20.729-.312 28-2.158c31.199-7.918 55.862-23.822 74.134-47.807 12.521-16.435 22.435-39.733 24.437-57.425.381-3.366 1.083-6.361 1.561-6.656.477-.296.868-6.837.868-14.537 0-7.721-.392-13.758-.873-13.46-.48.296-1.183-2.196-1.561-5.539-1.719-15.2-9.673-35.341-20.206-51.172-19.277-28.973-50.482-49.131-85.286-55.096-11.553-1.979-31.578-1.976-42.574.007M64 127.88V192h19V91.966l5.25 2.648c2.888 1.457 10.493 5.745 16.902 9.53 15.006 8.863 20.323 11.205 23.582 10.387 1.406-.353 10.028-4.938 19.161-10.19s22.141-12.719 28.907-16.595c15.826-9.065 18.358-13.178 12.293-19.966-2.413-2.7-3.585-3.233-6.912-3.146-2.204.058-5.285.984-6.845 2.059-1.561 1.074-12.864 7.707-25.118 14.739-14.474 8.307-22.949 12.611-24.19 12.286-1.791-.468-26.231-14.419-43.03-24.562-6.004-3.625-8.647-4.615-13.25-4.963L64 63.76zm113.5-29.015c-2.75 1.556-15.266 8.717-27.813 15.912l-22.814 13.083-9.507-5.566c-11.143-6.524-15.861-7.254-20.019-3.095-2.763 2.762-3.374 7.513-1.434 11.139.671 1.253 6.918 5.589 13.883 9.637 17.413 10.118 16.087 10.241 40.401-3.747 10.617-6.107 20.09-11.405 21.053-11.773 1.646-.629 1.75 1.367 1.75 33.438V192h19V96l-4.75.018c-3.345.013-6.229.855-9.75 2.847M.397 128c0 7.975.156 11.238.346 7.25s.189-10.513 0-14.5c-.19-3.987-.346-.725-.346 7.25"/><path fill="#1976D2" fill-opacity=".186" fill-rule="evenodd" d="M119.5 1.022c-1.65.532-3.611.741-4.359.463-1.709-.636-14.265 1.462-15.733 2.629-.601.478-1.312.649-1.58.381-.496-.497-10.503 2.208-12.328 3.331-.55.339-1.798.74-2.772.892-3.569.556-16.986 7.542-25.987 13.53-11.029 7.338-26.222 22.256-33.47 32.865C12.903 70.288 5.036 89.366 1.873 107c-1.932 10.772-1.667 34.504.502 45 5.502 26.621 16.568 47.226 35.496 66.095 15.801 15.751 30.408 24.821 50.544 31.384 5.547 1.807 13.46 3.891 17.585 4.63 9.654 1.73 34.346 1.73 44 0 9.679-1.734 25.943-7.047 34.096-11.138 29.424-14.766 53.397-41.472 64.175-71.492 3.091-8.609 6.729-25.046 6.729-30.403 0-2.177.45-4.236 1-4.576s1-4.668 1-9.618c0-5.745-.362-8.777-1-8.382-.593.366-1-.786-1-2.831 0-8.932-5.262-28.354-11.416-42.134-7.499-16.792-26.546-39.237-42.584-50.181-7.849-5.356-24.409-14.12-27.626-14.62-1.031-.161-2.324-.569-2.874-.908-1.825-1.123-11.832-3.828-12.328-3.331-.268.268-.979.097-1.58-.381-1.098-.873-11.933-2.781-16.592-2.922-1.375-.041-5.875-.315-10-.607-4.125-.293-8.85-.096-10.5.437M64 128v64h25.981l.259-47.898.26-47.897 16.415 9.397c18.191 10.415 20.672 11.051 27.585 7.071 2.2-1.266 14.8-8.496 28-16.065s25.238-15.086 26.75-16.701c3.868-4.134 3.762-9.049-.284-13.095-2.882-2.882-3.371-3.014-9.75-2.647-5.924.341-7.837 1.022-16.216 5.77-5.225 2.961-11.075 6.364-13 7.563C139.853 83.817 128.675 90 127.398 90c-1.189 0-14.515-7.334-32.058-17.643C80.324 63.533 81.601 64 72.515 64H64zm100-25.387c-11.741 6.708-16.999 9.769-29.692 17.286l-7.191 4.26-6.867-4.08c-6.218-3.694-7.505-4.079-13.635-4.079-6.148 0-7.037.268-9.692 2.923-3.691 3.692-3.967 8.802-.673 12.471 3.656 4.072 24.711 15.812 29.324 16.351 4.691.548 5.553.158 25.795-11.653 7.627-4.45 14.04-8.092 14.25-8.092.209 0 .381 14.287.382 31.75l.001 31.75 12.999.346 12.999.346V96l-8.25.022-8.25.021zM.36 128c0 5.225.169 7.363.375 4.75s.206-6.888 0-9.5S.36 122.775.36 128"/><path fill="#1976D2" fill-opacity=".166" fill-rule="evenodd" d="M163.5 101c-.34.55-.141 1 .441 1s1.059-.45 1.059-1-.198-1-.441-1-.719.45-1.059 1m-65.5.43c0 .275.9.981 2 1.57s2 .845 2 .57-.9-.981-2-1.57-2-.845-2-.57m51 3.57c-.901.582-1.025.975-.309.985.655.008 1.469-.435 1.809-.985.767-1.242.421-1.242-1.5 0m2 3c-.901.582-1.025.975-.309.985.655.008 1.469-.435 1.809-.985.767-1.242.421-1.242-1.5 0m-41 .43c0 .275.9.981 2 1.57s2 .845 2 .57-.9-.981-2-1.57-2-.845-2-.57m36.507 2.559c-.35.566.051.734.941.393 1.732-.665 2.049-1.382.611-1.382-.518 0-1.216.445-1.552.989M136.5 112c-.34.55-.168 1 .382 1s1.278-.45 1.618-1 .168-1-.382-1-1.278.45-1.618 1m-18.695 1.256c1.09 1.321 1.036 1.733-.328 2.497-1.439.805-1.356 1.092.695 2.405 1.28.821 3.228 1.796 4.328 2.169 1.969.667 1.97.655.059-.825-1.068-.826-2.321-1.502-2.785-1.502-.465 0-.373-.881.204-1.958.86-1.607.642-2.174-1.215-3.164-2.015-1.073-2.12-1.032-.958.378m13.695 1.313c-1.65.774-4.575 1.213-6.5.976l-3.5-.431 3.25 1.087c1.787.599 3.25 1.473 3.25 1.944s.787.858 1.75.862c1.27.004.927.577-1.25 2.086-3.39 2.351-2.68 2.21 2.712-.536 3.345-1.704 3.543-2.018 2-3.162-1.6-1.188-1.581-1.372.288-2.801 2.437-1.864 1.936-1.87-2-.025m8.007-.558c.336.544.059.989-.615.989s-.959.266-.634.592c.326.325 1.35.167 2.276-.351 1.564-.876 1.566-.989.024-1.581-.977-.374-1.41-.229-1.051.351M130 118c.825.533 1.95.969 2.5.969s.325-.436-.5-.969-1.95-.969-2.5-.969-.325.436.5.969m-36.491 2.986c-.679 1.098-.406 11.244.284 10.554.417-.416.914-11.542.516-11.541-.105.001-.465.445-.8.987m-31.368 4.264c-.089 2.99-.604 4.791-1.391 4.861-.687.061-11.825.017-24.75-.099-16.418-.147-23.721-.557-24.235-1.361-.535-.838-.739-.811-.75.099-.01.851-1.848 1.255-5.765 1.265-3.507.01-5.232.344-4.421.858.883.56 1.262 2.654 1.129 6.235-.11 2.966.13 6.186.534 7.157.403.971.5 2.658.215 3.749s-.075 2.259.468 2.594c.543.336.717 1.686.387 3.001C3.195 155.07 3.4 156 4.088 156c.629 0 .85.718.502 1.627-.344.894-.112 2.244.515 3S5.91 162 5.5 162s-.201.655.464 1.456c.664.801.918 1.926.563 2.5S6.378 167 6.985 167c.606 0 .989.563.849 1.25-.139.688.307 2.262.991 3.5.685 1.238.949 2.25.588 2.25-.362 0-.098.675.587 1.5s.96 1.5.612 1.5c-1.22 0 8.257 17.577 13.479 25 11.344 16.123 31.248 32.863 49.15 41.336 28.834 13.647 62.822 15.816 94.133 6.008 30.513-9.559 59.22-33.903 73.67-62.476 2.123-4.197 3.581-7.91 3.241-8.25s-.018-.618.715-.618 1.037-.296.675-.658-.156-1.262.456-2c.613-.738.818-1.342.456-1.342s-.097-1.012.588-2.25 1.13-2.812.991-3.5c-.14-.687.243-1.25.849-1.25.607 0 .813-.47.458-1.044s-.101-1.699.563-2.5c.665-.801.874-1.456.464-1.456s-.232-.618.395-1.373c.627-.756.859-2.106.515-3-.358-.933-.123-1.627.55-1.627.718 0 .929-.775.543-1.991-.348-1.095-.282-2.557.146-3.249s.652-2.452.499-3.91.209-2.952.803-3.32a1.28 1.28 0 0 0 .408-1.759c-1.255-2.03-.37-9.101 1.39-11.114 1.068-1.22 1.197-1.675.331-1.165-1.027.605-1.261.421-.845-.661.33-.86.017-1.498-.735-1.498-.72 0-1.079.6-.798 1.334.681 1.774-7.292 1.855-8.119.083-.466-1-.7-1-1.166 0-.757 1.622-5.1 1.622-5.755 0-.403-1-.52-1-.583 0-.043.688-.577 1.25-1.186 1.25s-.877-.6-.595-1.333c.281-.734-.078-1.334-.798-1.334s-1.079.6-.798 1.334c.323.84-.236 1.333-1.512 1.333-1.113 0-2.25-.562-2.528-1.25-.403-1-.52-1-.583 0-.043.688-.802 1.25-1.686 1.25-.928 0-1.391-.563-1.095-1.333.281-.734-.078-1.334-.798-1.334s-1.079.6-.798 1.334c.368.959-.5 1.333-3.095 1.333-1.984 0-3.607-.45-3.607-1s-.675-1-1.5-1-1.5.45-1.5 1-1.848 1-4.107 1c-3.012 0-3.971-.356-3.595-1.333.281-.734-.078-1.334-.798-1.334s-1.079.6-.798 1.334c.323.84-.236 1.333-1.512 1.333-1.113 0-2.25-.562-2.528-1.25-.306-.759-.535-.575-.583.469-.052 1.131-.611 1.514-1.636 1.121-.857-.329-1.348-1.145-1.092-1.813q.466-1.214-1.89-.764c-1.942.371-2.423 1.179-2.734 4.594-.237 2.604-.442 1.451-.552-3.107-.098-4.05-.616-7.25-1.175-7.25-.648 0-1 12.343-1 35.029v35.029l-13.25-.279-13.25-.279-.32-30.987c-.177-17.043-.485-31.151-.686-31.352-.751-.752-4.45 2.553-3.738 3.339.409.451.191.503-.485.114s-2.2-.187-3.385.447c-1.744.933-1.891 1.337-.771 2.112.97.671.674.757-.99.285-1.475-.417-2.142-.295-1.761.322.338.547-.168.932-1.125.857-.956-.075-1.632.409-1.501 1.077.147.749-.395.971-1.414.58-1.197-.459-1.427-.269-.834.691q.82 1.325-.342.606c-.639-.394-2.396.131-3.905 1.168-6.666 4.581-13.755 7.484-18.065 7.398-2.415-.049-4.998-.592-5.74-1.209-.743-.616-1.933-.784-2.644-.374s-.959.377-.55-.074c.409-.452-1.752-2.324-4.803-4.162-7.914-4.767-11.763-6.668-10.999-5.432.407.658.066.842-.884.478-.851-.327-1.37-.884-1.155-1.239s-.661-1.433-1.946-2.396c-1.43-1.072-2.577-1.363-2.956-.75-1.308 2.116-2.401.833-2.769-3.249-.21-2.338-.461 10.713-.557 29L91 192H64l-.099-30.25c-.054-16.637-.441-32.725-.859-35.75l-.76-5.5zM60.158 127c0 1.375.227 1.938.504 1.25.278-.687.278-1.812 0-2.5-.277-.687-.504-.125-.504 1.25m103 8c0 1.375.227 1.938.504 1.25.278-.687.278-1.812 0-2.5-.277-.687-.504-.125-.504 1.25M158 136.049c0 1.724.289 1.956 1.342 1.082.738-.612 1.7-.78 2.137-.372.437.407.583.066.325-.759-.784-2.503-3.804-2.464-3.804.049"/></svg>